<svg width="40" height="40" viewBox="0 0 40 40" fill="none" xmlns="http://www.w3.org/2000/svg">
<circle cx="20" cy="20" r="20" fill="#0065DD"/>
<path d="M28.3711 13.5C28.9336 13.5 29.3203 14.0273 29.2148 14.5547L27.6328 21.8672C27.5273 22.2539 27.2109 22.5 26.7891 22.5H15.8203L16.1367 24.1875H26.0508C26.6133 24.1875 27 24.7148 26.8945 25.2422L26.8594 25.3828C27.2812 25.8047 27.5625 26.3672 27.5625 27C27.5625 28.2656 26.543 29.25 25.3125 29.25C24.0469 29.25 23.0625 28.2656 23.0625 27C23.0625 26.6836 23.168 26.1914 23.3438 25.875H18.2461C18.4219 26.1914 18.5625 26.6836 18.5625 27C18.5625 28.2656 17.543 29.25 16.3125 29.25C15.0469 29.25 14.0625 28.2656 14.0625 27C14.0625 26.4023 14.2734 25.875 14.6602 25.4531L12.2344 12.9375H9.42188C9.17578 12.9375 9 12.7617 9 12.5156V11.6719C9 11.4609 9.17578 11.25 9.42188 11.25H12.9375C13.3242 11.25 13.6758 11.5664 13.7461 11.9531L14.0625 13.5H28.3711ZM16.3125 27.8438C16.7695 27.8438 17.1562 27.4922 17.1562 27C17.1562 26.543 16.7695 26.1562 16.3125 26.1562C15.8203 26.1562 15.4688 26.543 15.4688 27C15.4688 27.4922 15.8203 27.8438 16.3125 27.8438ZM25.3125 27.8438C25.7695 27.8438 26.1562 27.4922 26.1562 27C26.1562 26.543 25.7695 26.1562 25.3125 26.1562C24.8203 26.1562 24.4688 26.543 24.4688 27C24.4688 27.4922 24.8203 27.8438 25.3125 27.8438ZM26.1211 20.8125L27.3516 15.1875H14.3789L15.4688 20.8125H26.1211Z" fill="white"/>
</svg>
