<svg width="60" height="53" viewBox="0 0 60 53" fill="none" xmlns="http://www.w3.org/2000/svg">
<g clip-path="url(#clip0_1_430)">
<path d="M52.5 28.2499H37.5V30.7499H52.5V28.2499Z" fill="#0065DD"/>
<path d="M52.5 20.7501H30V23.2501H52.5V20.7501Z" fill="#0065DD"/>
<path d="M55 0.750061H5C2.24993 0.750061 0 3 0 5.75006V38.2501C0 41 2.24993 43.2501 5 43.2501H10V53.2501L16.2499 47.0001L22.4999 53.2501V43.2501H55C57.7499 43.2501 60 41 60 38.2501V5.75006C60 3 57.7499 0.750061 55 0.750061ZM20 47.2499L16.2499 43.4999L12.4999 47.2499V37.5C13.7498 38 14.9999 38.2499 16.2499 38.2499C17.5 38.2499 18.7499 38 20 37.5V47.2499ZM16.2499 35.7501C12.7499 35.7501 10 33.0001 10 29.5001C10 26.0001 12.7501 23.2502 16.2499 23.2502C19.7498 23.2502 22.4999 26.0001 22.4999 29.5001C22.4999 33.0001 19.7499 35.7501 16.2499 35.7501ZM57.5 38.2499C57.5 39.7499 56.5 40.7499 55 40.7499H22.5V35.5C24 33.9999 25 31.7499 25 29.5C25 24.7501 21 20.7499 16.2499 20.7499C11.4999 20.7499 7.49987 24.7499 7.49987 29.5C7.49987 32 8.49987 34 9.99987 35.5V40.7499H5C3.5 40.7499 2.5 39.5 2.5 38.2499V5.75006C2.5 4.25006 3.5 3.25006 5 3.25006H55C56.5 3.25006 57.5 4.5 57.5 5.75006V38.2499Z" fill="#0065DD"/>
<path d="M52.5 13.2499H7.5V15.7499H52.5V13.2499Z" fill="#0065DD"/>
</g>
<defs>
<clipPath id="clip0_1_430">
<rect width="60" height="52" fill="white" transform="translate(0 0.877441)"/>
</clipPath>
</defs>
</svg>
