<svg width="60" height="55" viewBox="0 0 60 55" fill="none" xmlns="http://www.w3.org/2000/svg">
<g clip-path="url(#clip0_1_419)">
<path d="M58.4832 3.88147L53.2941 7.66453V44.8785H0V47.4542H4.39788C4.07082 48.0947 3.88629 48.8195 3.88629 49.5867C3.88629 52.1824 5.99914 54.2948 8.59506 54.2948C11.1909 54.2948 13.3025 52.1824 13.3025 49.5867C13.3025 48.8195 13.118 48.0947 12.7911 47.4542H41.7912C41.4642 48.0947 41.2796 48.8195 41.2796 49.5867C41.2796 52.1824 43.3925 54.2948 45.9883 54.2948C48.5842 54.2948 50.6971 52.1824 50.6971 49.5867C50.6971 48.8195 50.5124 48.0947 50.1855 47.4542H55.8699V8.97376L60 5.96298L58.4832 3.88147ZM10.7268 49.5868C10.7268 50.7626 9.77106 51.7192 8.59506 51.7192C7.41906 51.7192 6.462 50.7628 6.462 49.5868C6.462 48.4108 7.41918 47.4543 8.59506 47.4543C9.77106 47.4543 10.7268 48.4108 10.7268 49.5868ZM48.1212 49.5868C48.1212 50.7626 47.164 51.7192 45.9882 51.7192C44.8122 51.7192 43.8552 50.7628 43.8552 49.5868C43.8552 48.4108 44.8122 47.4543 45.9882 47.4543C47.1642 47.4543 48.1212 48.4108 48.1212 49.5868Z" fill="#0065DD"/>
<path d="M47.2761 19.4786H27.2313V39.2499H47.2761V19.4786ZM44.7004 36.6741H29.807V22.0544H44.7004V36.6741Z" fill="#0065DD"/>
<path d="M44.8224 1.70505H29.6849V16.2677H44.8224V1.70505ZM42.2467 13.6919H32.2607V4.28076H42.2467V13.6919Z" fill="#0065DD"/>
<path d="M23.9312 19.4786H3.88628V39.2499H23.9312V19.4786ZM21.3555 36.6741H6.462V22.0544H21.3555V36.6741Z" fill="#0065DD"/>
</g>
<defs>
<clipPath id="clip0_1_419">
<rect width="60" height="54" fill="white" transform="translate(0 0.877441)"/>
</clipPath>
</defs>
</svg>
