<svg width="60" height="53" viewBox="0 0 60 53" fill="none" xmlns="http://www.w3.org/2000/svg">
<g clip-path="url(#clip0_1_442)">
<path d="M41.6 21.6545C48.2667 21.6545 53.6 27.0013 53.6 33.6847C53.6 36.0373 52.9333 38.2562 51.76 40.1009L59.9733 48.3884L56.2667 52.1044L47.9467 43.8971C46.1067 45.0467 43.92 45.715 41.6 45.715C34.9333 45.715 29.6 40.3682 29.6 33.6847C29.6 27.0013 34.9333 21.6545 41.6 21.6545ZM41.6 27.0013C39.8319 27.0013 38.1362 27.7054 36.886 28.9588C35.6357 30.2122 34.9333 31.9122 34.9333 33.6847C34.9333 35.4573 35.6357 37.1573 36.886 38.4107C38.1362 39.6641 39.8319 40.3682 41.6 40.3682C43.3681 40.3682 45.0638 39.6641 46.314 38.4107C47.5643 37.1573 48.2667 35.4573 48.2667 33.6847C48.2667 31.9122 47.5643 30.2122 46.314 28.9588C45.0638 27.7054 43.3681 27.0013 41.6 27.0013ZM48.2667 10.9609H5.6V37.6948H24.72C25.1733 39.6197 25.9467 41.4108 26.9333 43.0416H5.6C2.64 43.0416 0.266663 40.6356 0.266663 37.6948V5.61412C0.266663 2.64665 2.64 0.267334 5.6 0.267334H21.6L26.9333 5.61412H48.2667C49.6812 5.61412 51.0377 6.17744 52.0379 7.18016C53.0381 8.18287 53.6 9.54285 53.6 10.9609V21.1465C52.0533 19.6762 50.2667 18.4731 48.2667 17.6444V10.9609Z" fill="#0065DD"/>
</g>
<defs>
<clipPath id="clip0_1_442">
<rect width="60" height="52.1311" fill="white"/>
</clipPath>
</defs>
</svg>
