<svg width="58" height="40" viewBox="0 0 58 40" fill="none" xmlns="http://www.w3.org/2000/svg">
<g clip-path="url(#clip0_1_412)">
<path d="M57.0729 14.5644L51.3089 3.5262C50.9652 2.87499 50.3808 2.3837 49.6802 2.15697C48.9796 1.93024 48.2181 1.98598 47.558 2.31233L41.9037 5.13936H37.64L29.7219 1.55667C29.1103 1.28034 28.42 1.23152 27.7755 1.419L16.0151 4.84752L10.4421 2.06113C9.78195 1.7349 9.02057 1.67921 8.32 1.90591C7.61944 2.1326 7.03502 2.62378 6.69115 3.27489L0.927221 14.3133C0.754382 14.6444 0.649212 15.0066 0.617847 15.3787C0.586481 15.7509 0.629549 16.1256 0.744538 16.4809C0.859526 16.8363 1.04413 17.1651 1.28758 17.4484C1.53104 17.7316 1.82846 17.9635 2.16249 18.1306L7.87183 20.9852L20.6088 30.9449C20.9188 31.1881 21.2767 31.363 21.6591 31.458L35.2428 34.8539C35.4638 34.909 35.6907 34.9368 35.9184 34.9368C36.6661 34.9371 37.3834 34.6413 37.9136 34.1142L46.5379 25.4898C46.5553 25.4725 46.5717 25.4546 46.5878 25.436L50.2144 21.1933L55.8376 18.3818C56.1716 18.2147 56.469 17.9828 56.7125 17.6996C56.9559 17.4163 57.1405 17.0874 57.2555 16.7321C57.3705 16.3767 57.4136 16.002 57.3822 15.6298C57.3509 15.2577 57.2457 14.8955 57.0729 14.5644ZM45.7256 23.559L36.1139 16.5687C35.9518 16.4508 35.7561 16.388 35.5556 16.3894C35.3551 16.3909 35.1604 16.4566 35 16.5768L32 18.8268C30.8619 19.6736 29.4811 20.1309 28.0625 20.1309C26.644 20.1309 25.2632 19.6736 24.1251 18.8268L22.8546 17.874C22.7471 17.7934 22.6583 17.6907 22.594 17.5728C22.5297 17.4549 22.4915 17.3245 22.4819 17.1905C22.4724 17.0566 22.4918 16.9221 22.5387 16.7963C22.5857 16.6705 22.6591 16.5562 22.7541 16.4612L31.9263 7.28902C32.1025 7.11381 32.3407 7.01512 32.5891 7.01436H37.4349L37.4371 7.01459L37.4403 7.01436H41.557L48.5008 20.3122L45.7256 23.559ZM2.52848 15.9037C2.48974 15.7853 2.47516 15.6603 2.48562 15.5362C2.49608 15.4121 2.53136 15.2913 2.58936 15.1811L8.35329 4.14269C8.43338 3.99078 8.55349 3.86366 8.70061 3.77509C8.84774 3.68652 9.01629 3.63987 9.18802 3.64019C9.33224 3.64006 9.47449 3.67361 9.60344 3.73816L14.6025 6.23755L7.97037 18.9382L3.00112 16.4536C2.88954 16.3982 2.79021 16.321 2.70902 16.2266C2.62783 16.1321 2.56643 16.0223 2.52848 15.9037ZM36.5879 32.7883C36.4732 32.9025 36.331 32.9852 36.175 33.0284C36.019 33.0715 35.8545 33.0738 35.6973 33.0348L22.1137 29.6389C21.9863 29.6072 21.867 29.5489 21.7637 29.4679L9.56729 19.9309L16.4969 6.66014L28.3001 3.21916C28.5149 3.1565 28.7451 3.17273 28.949 3.26493L33.0914 5.13936H32.5891C32.2197 5.13835 31.8537 5.21064 31.5124 5.35204C31.171 5.49343 30.8611 5.70113 30.6006 5.96311L21.4284 15.1353C21.1434 15.4202 20.923 15.763 20.7821 16.1405C20.6411 16.5181 20.583 16.9214 20.6115 17.3234C20.64 17.7253 20.7546 18.1165 20.9475 18.4703C21.1404 18.8241 21.407 19.1323 21.7294 19.3741L22.9999 20.3269C24.4633 21.4156 26.2386 22.0035 28.0625 22.0035C29.8865 22.0035 31.6618 21.4156 33.1252 20.3269L35.571 18.4923L44.4364 24.9397L36.5879 32.7883ZM55.4716 16.1549C55.4336 16.2735 55.3722 16.3833 55.2911 16.4778C55.2099 16.5722 55.1105 16.6494 54.999 16.7048L50.0297 19.1894L43.3976 6.48873L48.3966 3.98934C48.6166 3.88049 48.8705 3.86188 49.104 3.93748C49.3375 4.01307 49.5323 4.17688 49.6468 4.394L55.4107 15.4322C55.4687 15.5424 55.504 15.6632 55.5145 15.7873C55.5249 15.9115 55.5103 16.0365 55.4716 16.1549ZM26.1596 39.1166C26.1299 39.2361 26.0768 39.3486 26.0036 39.4476C25.9303 39.5466 25.8383 39.6302 25.7327 39.6935C25.6271 39.7569 25.51 39.7988 25.3882 39.8169C25.2664 39.835 25.1422 39.8289 25.0228 39.7989L17.9588 38.0331C17.5289 37.925 17.1305 37.7174 16.7956 37.427L11.51 32.8325C11.4168 32.7518 11.3403 32.6535 11.2851 32.5433C11.2299 32.433 11.197 32.313 11.1882 32.19C11.1795 32.067 11.1951 31.9435 11.2341 31.8266C11.2732 31.7096 11.3349 31.6015 11.4158 31.5084C11.4967 31.4154 11.5951 31.3392 11.7055 31.2843C11.8159 31.2293 11.936 31.1967 12.059 31.1882C12.1821 31.1798 12.3055 31.1957 12.4224 31.235C12.5392 31.2744 12.6472 31.3364 12.74 31.4175L18.0258 36.0121C18.1377 36.1089 18.2706 36.1781 18.414 36.2142L25.4773 37.9798C25.7185 38.0401 25.9259 38.1938 26.0538 38.4069C26.1818 38.6201 26.2198 38.8754 26.1596 39.1166Z" fill="#0065DD"/>
</g>
<defs>
<clipPath id="clip0_1_412">
<rect width="58" height="39" fill="white" transform="translate(0 0.877441)"/>
</clipPath>
</defs>
</svg>
