<svg width="29" height="21" viewBox="0 0 29 21" fill="none" xmlns="http://www.w3.org/2000/svg">
<path d="M1.79333 3.5C1.30115 3.5 0.918335 3.11719 0.918335 2.625V0.875C0.918335 0.4375 1.30115 0 1.79333 0H24.5433C24.9808 0 25.4183 0.4375 25.4183 0.875V2.625C25.4183 3.11719 24.9808 3.5 24.5433 3.5H1.79333ZM28.0433 8.75C28.4808 8.75 28.9183 9.1875 28.9183 9.625V11.375C28.9183 11.8672 28.4808 12.25 28.0433 12.25H5.29333C4.80115 12.25 4.41833 11.8672 4.41833 11.375V9.625C4.41833 9.1875 4.80115 8.75 5.29333 8.75H28.0433ZM24.5433 17.5C24.9808 17.5 25.4183 17.9375 25.4183 18.375V20.125C25.4183 20.6172 24.9808 21 24.5433 21H1.79333C1.30115 21 0.918335 20.6172 0.918335 20.125V18.375C0.918335 17.9375 1.30115 17.5 1.79333 17.5H24.5433Z" fill="#DE3F29"/>
</svg>
