<svg width="22" height="22" viewBox="0 0 22 22" fill="none" xmlns="http://www.w3.org/2000/svg">
<g clip-path="url(#clip0_1501_85)">
<path d="M1.83669 20.1666L3.07602 15.6126C2.2594 14.2127 1.83036 12.6206 1.83302 10.9999C1.83302 5.93717 5.93694 1.83325 10.9997 1.83325C16.0624 1.83325 20.1664 5.93717 20.1664 10.9999C20.1664 16.0627 16.0624 20.1666 10.9997 20.1666C9.37973 20.1692 7.78829 19.7405 6.38885 18.9245L1.83669 20.1666ZM7.69144 6.69892C7.57306 6.70627 7.45739 6.73745 7.35135 6.79059C7.25191 6.8469 7.16114 6.91729 7.08185 6.99959C6.97185 7.10317 6.90952 7.193 6.8426 7.28009C6.50381 7.721 6.32158 8.26222 6.32469 8.81825C6.32652 9.26742 6.44385 9.70467 6.62719 10.1135C7.0021 10.9403 7.61902 11.8158 8.43394 12.627C8.6301 12.8223 8.82169 13.0184 9.02794 13.2008C10.0394 14.0913 11.2447 14.7335 12.5479 15.0763L13.0695 15.1561C13.2391 15.1653 13.4087 15.1524 13.5792 15.1442C13.8462 15.1304 14.1068 15.0581 14.3428 14.9324C14.4949 14.8518 14.5664 14.8114 14.6939 14.7308C14.6939 14.7308 14.7333 14.7051 14.8084 14.6483C14.9322 14.5566 15.0083 14.4915 15.1109 14.3843C15.187 14.3054 15.253 14.2128 15.3034 14.1074C15.3749 13.958 15.4464 13.6729 15.4758 13.4355C15.4978 13.254 15.4914 13.155 15.4886 13.0936C15.4849 12.9955 15.4034 12.8938 15.3144 12.8507L14.7809 12.6114C14.7809 12.6114 13.9834 12.264 13.4967 12.0422C13.4454 12.0198 13.3904 12.0071 13.3344 12.0046C13.2717 11.9981 13.2083 12.0052 13.1486 12.0253C13.0888 12.0454 13.034 12.078 12.9879 12.121V12.1192C12.9834 12.1192 12.9219 12.1714 12.2592 12.9744C12.2211 13.0255 12.1687 13.0642 12.1087 13.0854C12.0486 13.1066 11.9836 13.1095 11.9219 13.0936C11.8621 13.0776 11.8036 13.0574 11.7468 13.0331C11.6331 12.9854 11.5937 12.9671 11.5158 12.9332L11.5112 12.9313C10.9868 12.7024 10.5012 12.3931 10.072 12.0147C9.95652 11.9138 9.84927 11.8038 9.73927 11.6975C9.37863 11.3521 9.06434 10.9614 8.80427 10.5352L8.75019 10.4481C8.71134 10.3896 8.67993 10.3264 8.65669 10.2602C8.62185 10.1254 8.7126 10.0173 8.7126 10.0173C8.7126 10.0173 8.93535 9.77342 9.03894 9.64142C9.12519 9.53171 9.20566 9.41759 9.28002 9.2995C9.38819 9.12534 9.4221 8.94659 9.36527 8.80817C9.1086 8.18117 8.84277 7.55692 8.5696 6.93725C8.51552 6.81442 8.3551 6.72642 8.20935 6.709C8.15985 6.7035 8.11035 6.698 8.06085 6.69434C7.93775 6.68822 7.81439 6.69036 7.69144 6.69892Z" fill="#514E54"/>
</g>
<defs>
<clipPath id="clip0_1501_85">
<rect width="22" height="22" fill="white"/>
</clipPath>
</defs>
</svg>
